<svg xmlns="http://www.w3.org/2000/svg" width="70" height="70" viewBox="0 0 70 70"><defs><style>.a,.b{fill:#0779e4;}.a{opacity:0.1;}</style></defs><g transform="translate(-80 -330)"><rect class="a" width="70" height="70" rx="15" transform="translate(80 330)"/><path class="b" d="M27.274,13.789H17.833V4.348a2.1,2.1,0,0,0-2.1-2.1h-2.1a2.1,2.1,0,0,0-2.1,2.1v9.441H2.1a2.1,2.1,0,0,0-2.1,2.1v2.1a2.1,2.1,0,0,0,2.1,2.1h9.441v9.441a2.1,2.1,0,0,0,2.1,2.1h2.1a2.1,2.1,0,0,0,2.1-2.1V20.083h9.441a2.1,2.1,0,0,0,2.1-2.1v-2.1A2.1,2.1,0,0,0,27.274,13.789Z" transform="translate(100.314 348.064)"/></g></svg>