<svg xmlns="http://www.w3.org/2000/svg" width="92.277" height="80.932" viewBox="0 0 92.277 80.932"><defs><style>.a{fill:#fff;fill-rule:evenodd;}</style></defs><g transform="translate(0 -0.003)"><g transform="translate(0 0.003)"><path class="a" d="M5.193,34.711H8.741L9.748,44.4,17.2,34.711h3.535L15.544,50.354H12.118l2.6-7.857-6.09,7.857H6.939L6.076,42.5l-2.61,7.857H0Zm22.517.07h3.87l-3.227,3.977H24.929l2.74-3.977Zm-4.5,15.91a14.511,14.511,0,0,0,2.439-.217,11.369,11.369,0,0,0,2.117-.547l.856-2.6a10.567,10.567,0,0,1-1.946.491A12.971,12.971,0,0,1,24.62,48a4.355,4.355,0,0,1-2.144-.407,1.237,1.237,0,0,1-.617-1.3H29.84l.486-1.452a5.738,5.738,0,0,0,.288-2.855A3.043,3.043,0,0,0,29.333,40a4.908,4.908,0,0,0-2.843-.7,7.658,7.658,0,0,0-4.8,1.543A8.5,8.5,0,0,0,18.8,45.051c-.6,1.8-.5,3.2.295,4.209s2.172,1.48,4.11,1.48Zm3.98-6.854H22.654a3.069,3.069,0,0,1,1.123-1.354,3.11,3.11,0,0,1,1.754-.5,1.816,1.816,0,0,1,1.445.491,1.473,1.473,0,0,1,.212,1.361ZM34.2,50.691a8.366,8.366,0,0,0,1.555-.126,6.057,6.057,0,0,0,1.288-.393l.973-2.9a3.423,3.423,0,0,1-1.514.407q-.767,0-.945-.379a1.828,1.828,0,0,1,.11-1.256l1.219-3.683h2.295l.911-2.729h-2.3l1.069-3.227H35.177l-1.069,3.227H32.69l-.9,2.729H33.2l-1.37,4.209a3.936,3.936,0,0,0-.055,3.037,2.49,2.49,0,0,0,2.446,1.108Zm9.378,0a5.584,5.584,0,0,1-3.014-.7,3.26,3.26,0,0,1-1.514-2.013,5.215,5.215,0,0,1,.219-2.967,8.092,8.092,0,0,1,1.767-3A8.345,8.345,0,0,1,47.343,39.3a5.624,5.624,0,0,1,3.021.7,3.331,3.331,0,0,1,1.493,2.013,5.215,5.215,0,0,1-.226,2.967,8.062,8.062,0,0,1-1.719,3,8.461,8.461,0,0,1-6.337,2.715ZM44.6,47.625a3.151,3.151,0,0,0,2-.7,3.988,3.988,0,0,0,1.295-1.936,2.308,2.308,0,0,0,0-1.936,1.629,1.629,0,0,0-1.528-.7,3.145,3.145,0,0,0-2,.7,4,4,0,0,0-1.3,1.936,2.308,2.308,0,0,0,0,1.936A1.642,1.642,0,0,0,44.6,47.625Zm11.228,3.066a6.525,6.525,0,0,0,4.014-1.4l-.356,1.073h3.542L68.5,33.82H64.846l-2.213,6.671a2.782,2.782,0,0,0-1.206-.933,4.941,4.941,0,0,0-1.829-.281,6.717,6.717,0,0,0-3.021.7A7.946,7.946,0,0,0,54.029,42a9.066,9.066,0,0,0-1.658,2.988,6.061,6.061,0,0,0-.308,2.988,3.068,3.068,0,0,0,1.219,1.992,4.253,4.253,0,0,0,2.548.7Zm1.966-3.045a1.736,1.736,0,0,1-1.582-.7A2.221,2.221,0,0,1,56.173,45a3.968,3.968,0,0,1,1.37-1.943,3.278,3.278,0,0,1,2.055-.7,2.023,2.023,0,0,1,1.37.456,1.687,1.687,0,0,1,.548,1.242l-.63,1.9a4.061,4.061,0,0,1-1.37,1.242,3.364,3.364,0,0,1-1.658.463Zm12.468,3.045a5.584,5.584,0,0,1-3.014-.7,3.3,3.3,0,0,1-1.48-2.013,5.28,5.28,0,0,1,.226-2.967,8.092,8.092,0,0,1,1.747-2.967A8.3,8.3,0,0,1,74.059,39.3a5.624,5.624,0,0,1,3.021.7,3.331,3.331,0,0,1,1.493,2.013,5.215,5.215,0,0,1-.226,2.967,7.979,7.979,0,0,1-1.761,3,8.433,8.433,0,0,1-2.829,2.013,8.563,8.563,0,0,1-3.5.7Zm1.021-3.066a3.131,3.131,0,0,0,1.993-.7,3.953,3.953,0,0,0,1.3-1.936,2.308,2.308,0,0,0,0-1.936,1.635,1.635,0,0,0-1.534-.7,3.124,3.124,0,0,0-1.993.7,3.953,3.953,0,0,0-1.3,1.936,2.308,2.308,0,0,0,0,1.936A1.642,1.642,0,0,0,71.278,47.625Z" transform="translate(0 -10.905)"/><path class="a" d="M23.943,59.91H30.5c1.713,0,2.9.463,3.563,1.4s.685,2.252.13,3.985a8.141,8.141,0,0,1-1.7,2.974,7.163,7.163,0,0,1-2.61,1.824l.774,5.458h-3.8l-.685-4.91h-2.1l-1.624,4.91h-3.7Zm3.426,7.408a3.576,3.576,0,0,0,1.864-.456,2.8,2.8,0,0,0,1.13-1.578q.391-1.165-.062-1.6a2.242,2.242,0,0,0-1.583-.435H26.533l-1.37,4.069ZM38.029,75.89a14.376,14.376,0,0,0,2.439-.21,12.593,12.593,0,0,0,2.117-.547l.863-2.6a10.492,10.492,0,0,1-1.953.5,12.8,12.8,0,0,1-2.055.175,4.484,4.484,0,0,1-2.144-.4,1.23,1.23,0,0,1-.61-1.3h7.982l.48-1.459a5.572,5.572,0,0,0,.288-2.848,3.008,3.008,0,0,0-1.281-1.992,4.875,4.875,0,0,0-2.836-.7,7.706,7.706,0,0,0-4.8,1.543,8.573,8.573,0,0,0-2.891,4.209q-.9,2.7.295,4.209t4.111,1.48Zm3.987-6.847H37.481a3.025,3.025,0,0,1,2.871-1.859,1.836,1.836,0,0,1,1.446.491,1.487,1.487,0,0,1,.219,1.4Zm6.331-4.209h3.426L51.383,66a7.049,7.049,0,0,1,1.8-1.115,4.888,4.888,0,0,1,1.864-.393,3.2,3.2,0,0,1,1.692.358,1.711,1.711,0,0,1,.74,1.073,7.184,7.184,0,0,1,1.87-1.038,5.576,5.576,0,0,1,1.939-.379c1.329,0,2.144.365,2.466,1.087a4.488,4.488,0,0,1-.206,3.122l-2.275,6.868H57.761l2.1-6.313a1.921,1.921,0,0,0,.116-1.3c-.116-.274-.425-.407-.911-.407a2.644,2.644,0,0,0-1.761.7c-.075.253-.192.645-.37,1.164L54.877,75.56H51.389l2.144-6.468a1.828,1.828,0,0,0,.123-1.186q-.158-.358-.843-.358a3.29,3.29,0,0,0-2.261,1.277L48.32,75.56H44.785l3.6-10.747ZM68.394,75.89a8.434,8.434,0,0,0,6.331-2.715,8.008,8.008,0,0,0,1.747-2.988,5.214,5.214,0,0,0,.219-2.967A3.261,3.261,0,0,0,75.2,65.206a5.625,5.625,0,0,0-3.021-.7,8.434,8.434,0,0,0-6.331,2.715A7.979,7.979,0,0,0,64.1,70.187a5.186,5.186,0,0,0-.219,2.96,3.289,3.289,0,0,0,1.494,2.013,5.625,5.625,0,0,0,3.021.7Zm1.014-3.066a1.629,1.629,0,0,1-1.528-.7,2.286,2.286,0,0,1,0-1.929,4,4,0,0,1,1.3-1.936,3.152,3.152,0,0,1,2-.7,1.649,1.649,0,0,1,1.535.7,2.308,2.308,0,0,1,0,1.936,3.98,3.98,0,0,1-1.3,1.929,3.152,3.152,0,0,1-2,.7ZM80.076,75.89a2.51,2.51,0,0,1-2.446-1.108,3.886,3.886,0,0,1,.055-3.03l1.37-4.209H77.637l.9-2.729h1.418l1.069-3.22h3.679l-1.041,3.22h2.3l-.9,2.729h-2.3L81.542,71.2a1.885,1.885,0,0,0-.116,1.256c.123.253.438.379.952.379a3.5,3.5,0,0,0,1.514-.4l-.973,2.974a6.164,6.164,0,0,1-1.288.386,8.369,8.369,0,0,1-1.555.126Zm9.379,0a8.566,8.566,0,0,0,3.5-.7,8.434,8.434,0,0,0,2.83-2.013,8.007,8.007,0,0,0,1.747-2.96,5.279,5.279,0,0,0,.226-2.967,3.3,3.3,0,0,0-1.5-2.013,5.585,5.585,0,0,0-3.015-.7,8.565,8.565,0,0,0-3.5.7,8.434,8.434,0,0,0-2.83,2.013,7.979,7.979,0,0,0-1.747,2.967,5.193,5.193,0,0,0-.226,2.96,3.317,3.317,0,0,0,1.494,2.013A5.625,5.625,0,0,0,89.455,75.89Zm1.021-3.066a1.642,1.642,0,0,1-1.535-.7,2.293,2.293,0,0,1,0-1.929,3.989,3.989,0,0,1,1.295-1.936,3.165,3.165,0,0,1,2-.7,1.642,1.642,0,0,1,1.535.7,2.308,2.308,0,0,1,0,1.936,3.938,3.938,0,0,1-1.3,1.929A3.132,3.132,0,0,1,90.476,72.825Z" transform="translate(-5.597 -19.297)"/><path class="a" d="M127.11,57a2.589,2.589,0,0,1,1.2.309,2.357,2.357,0,0,1,.919.9,2.434,2.434,0,0,1,.056,2.42,2.16,2.16,0,0,1-.849.919,2.441,2.441,0,0,1-1.2.323,2.532,2.532,0,0,1-1.214-.323,2.294,2.294,0,0,1-.912-.9,2.448,2.448,0,0,1-.351-1.207,2.413,2.413,0,0,1,.3-1.214,2.2,2.2,0,0,1,.891-.9,2.512,2.512,0,0,1,1.186-.309Zm0,.4a2.006,2.006,0,0,0-.989.26,1.866,1.866,0,0,0-.737.744,1.992,1.992,0,0,0,.042,2.013,1.873,1.873,0,0,0,.765.793,2.013,2.013,0,0,0,1.01.267,1.95,1.95,0,0,0,1-.267,1.768,1.768,0,0,0,.737-.751,2.02,2.02,0,0,0,.245-1,2.048,2.048,0,0,0-.295-1.01,1.936,1.936,0,0,0-.772-.751,2.1,2.1,0,0,0-1-.26Zm-1,3.36h.421V59.652h.246a.519.519,0,0,1,.337.091,1.971,1.971,0,0,1,.456.6l.246.414h.505L128,60.248a3.255,3.255,0,0,0-.4-.512.646.646,0,0,0-.224-.14.821.821,0,0,0,.54-.239.7.7,0,0,0,.189-.5.645.645,0,0,0-.126-.379.7.7,0,0,0-.337-.253,2.161,2.161,0,0,0-.666-.07h-.891l.049,2.6Zm.393-1.466h.526a.786.786,0,0,0,.5-.112.358.358,0,0,0,.126-.288.372.372,0,0,0-.07-.2.358.358,0,0,0-.182-.133,1.164,1.164,0,0,0-.421-.049h-.477Z" transform="translate(-39.132 -18.168)"/><path class="a" d="M17.648,10.362a6.235,6.235,0,0,1,1.959.316c1.629-1.123,3.348-2.189,5.142-3.178C47.528-5.092,74.217-1.451,84.343,15.637a29.316,29.316,0,0,1,3.211,21.241,29.485,29.485,0,0,0-3.54-19C74.107.794,48.055-2.847,25.83,9.745c-1.321.758-2.6,1.543-3.841,2.378a6.05,6.05,0,0,1,.9,1.066,57.16,57.16,0,0,1,5-3.023C49.123-1.29,74,2.021,83.46,17.538a26.11,26.11,0,0,1,2.992,19.319,26.28,26.28,0,0,0-3.3-17.215C73.9,4.07,49.609.758,28.884,12.207a57.345,57.345,0,0,0-5.005,3.122h-.048a7.07,7.07,0,0,1,.192,1.634,6.384,6.384,0,1,1-6.381-6.6ZM16.56,21.747v1.171h2.054V21.656a2.947,2.947,0,0,0,1.7-.884,2.436,2.436,0,0,0,.568-1.656,2.931,2.931,0,0,0-.219-1.221,2.23,2.23,0,0,0-.726-.856,6.848,6.848,0,0,0-1.369-.744c-.452-.175-.781-.323-.986-.421a1.671,1.671,0,0,1-.472-.337.6.6,0,0,1-.171-.435.612.612,0,0,1,.335-.568,1.878,1.878,0,0,1,.911-.2,4.6,4.6,0,0,1,2.218.6V12.922a5.543,5.543,0,0,0-1.794-.5v-1.2H16.56v1.27a3.1,3.1,0,0,0-1.588.926,2.305,2.305,0,0,0-.582,1.585,2.408,2.408,0,0,0,.548,1.613A4.784,4.784,0,0,0,16.71,17.8c.459.2.794.351,1,.456a1.372,1.372,0,0,1,.459.344.713.713,0,0,1,.151.463.622.622,0,0,1-.281.547,1.717,1.717,0,0,1-.89.182,5.9,5.9,0,0,1-1.369-.175,6.1,6.1,0,0,1-1.417-.54v2.055a4.046,4.046,0,0,0,.972.365,9.382,9.382,0,0,0,1.226.246Z" transform="translate(-3.361 -0.003)"/><path class="a" d="M74.776,92.517a6.19,6.19,0,0,1-1.952-.316q-2.45,1.684-5.141,3.178C44.9,108.006,18.207,104.33,8.067,87.241A29.327,29.327,0,0,1,4.856,66,29.557,29.557,0,0,0,8.4,84.99c9.921,17.088,35.98,20.729,58.2,8.137Q68.587,92,70.435,90.756a7.39,7.39,0,0,1-.9-1.066,57.043,57.043,0,0,1-4.991,3.023c-21.225,11.448-46.127,8.137-55.576-7.4A26.127,26.127,0,0,1,5.972,66a26.33,26.33,0,0,0,3.3,17.271c9.257,15.538,33.55,18.849,54.262,7.394a55.314,55.314,0,0,0,5.005-3.115h.055a6.8,6.8,0,0,1-.185-1.635,6.384,6.384,0,1,1,6.381,6.6ZM74.051,90.6v1.171H76.1V90.552a2.987,2.987,0,0,0,1.7-.877,2.443,2.443,0,0,0,.568-1.656,2.945,2.945,0,0,0-.226-1.228,2.229,2.229,0,0,0-.726-.856,6.533,6.533,0,0,0-1.369-.7c-.452-.182-.781-.323-.986-.428a1.541,1.541,0,0,1-.472-.337.6.6,0,0,1-.171-.435.619.619,0,0,1,.335-.568,1.852,1.852,0,0,1,.9-.189,4.7,4.7,0,0,1,2.225.589V81.8a5.558,5.558,0,0,0-1.766-.505V80.121H74.071v1.312a3.036,3.036,0,0,0-1.588.919,2.333,2.333,0,0,0-.589,1.592,2.407,2.407,0,0,0,.555,1.606,4.694,4.694,0,0,0,1.773,1.186c.459.2.794.351,1,.456a1.626,1.626,0,0,1,.459.344.713.713,0,0,1,.151.463.621.621,0,0,1-.281.547,1.643,1.643,0,0,1-.89.189,5.875,5.875,0,0,1-1.369-.182,6.1,6.1,0,0,1-1.417-.54v2.062a3.923,3.923,0,0,0,.972.358,9.369,9.369,0,0,0,1.205.168Z" transform="translate(-1.239 -21.959)"/></g></g></svg>