<svg xmlns="http://www.w3.org/2000/svg" width="92.528" height="81.152" viewBox="0 0 92.528 81.152"><defs><style>.a{fill:#333;}.a,.b,.c,.d{fill-rule:evenodd;}.b{fill:#fff;}.c{fill:#238cbb;}.d{fill:#f48637;}</style></defs><g transform="translate(0 0)"><path class="a" d="M5.225,34.7H8.8l1.013,9.519,7.5-9.519h3.557L15.64,50.066H12.193l2.619-7.72-6.128,7.72h-1.7l-.868-7.72-2.626,7.72H0Zm22.657.069h3.894l-3.247,3.908H25.083l2.757-3.908ZM23.353,50.4a14.942,14.942,0,0,0,2.454-.214,11.663,11.663,0,0,0,2.13-.538L28.8,47.1a10.842,10.842,0,0,1-1.958.482,13.359,13.359,0,0,1-2.068.179,4.474,4.474,0,0,1-2.157-.4,1.206,1.206,0,0,1-.62-1.275h8.03l.489-1.427A5.514,5.514,0,0,0,30.8,41.85a2.985,2.985,0,0,0-1.289-1.958,5.032,5.032,0,0,0-2.861-.689A7.83,7.83,0,0,0,21.83,40.72a8.347,8.347,0,0,0-2.909,4.136c-.607,1.771-.5,3.143.3,4.136s2.185,1.454,4.136,1.454Zm4-6.734H22.795a3.033,3.033,0,0,1,1.13-1.33,3.184,3.184,0,0,1,1.765-.489,1.854,1.854,0,0,1,1.454.483,1.42,1.42,0,0,1,.214,1.337ZM34.409,50.4a8.616,8.616,0,0,0,1.565-.124,6.2,6.2,0,0,0,1.3-.386l.979-2.847a3.508,3.508,0,0,1-1.523.4q-.772,0-.951-.372a1.758,1.758,0,0,1,.11-1.234l1.227-3.619H39.42l.917-2.681H38.021L39.1,36.363h-3.7l-1.075,3.171H32.893l-.91,2.681h1.427l-1.379,4.136a3.784,3.784,0,0,0-.055,2.985,2.527,2.527,0,0,0,2.461,1.089Zm9.436,0a5.728,5.728,0,0,1-3.033-.689,3.212,3.212,0,0,1-1.523-1.978,5.011,5.011,0,0,1,.221-2.916,7.913,7.913,0,0,1,1.778-2.943,8.657,8.657,0,0,1,2.826-1.978,8.788,8.788,0,0,1,3.522-.689,5.769,5.769,0,0,1,3.04.689,3.281,3.281,0,0,1,1.5,1.978,5.011,5.011,0,0,1-.227,2.916,7.878,7.878,0,0,1-1.73,2.943,8.581,8.581,0,0,1-2.854,1.978,8.768,8.768,0,0,1-3.522.689Zm1.027-3.012a3.219,3.219,0,0,0,2.013-.689,3.915,3.915,0,0,0,1.3-1.9,2.219,2.219,0,0,0,0-1.9,1.654,1.654,0,0,0-1.537-.689,3.212,3.212,0,0,0-2.013.689,3.929,3.929,0,0,0-1.31,1.9,2.22,2.22,0,0,0,0,1.9A1.668,1.668,0,0,0,44.872,47.385ZM56.17,50.4a6.665,6.665,0,0,0,4.039-1.379l-.358,1.055h3.564L68.928,33.82H65.247l-2.226,6.555a2.792,2.792,0,0,0-1.213-.917,5.08,5.08,0,0,0-1.84-.276,6.893,6.893,0,0,0-3.04.689,7.968,7.968,0,0,0-2.564,1.985A8.851,8.851,0,0,0,52.7,44.793a5.824,5.824,0,0,0-.31,2.936,3.005,3.005,0,0,0,1.227,1.958,4.356,4.356,0,0,0,2.564.689Zm1.978-2.991a1.765,1.765,0,0,1-1.592-.689,2.137,2.137,0,0,1-.034-1.909A3.9,3.9,0,0,1,57.9,42.9a3.35,3.35,0,0,1,2.068-.689,2.068,2.068,0,0,1,1.379.448,1.641,1.641,0,0,1,.551,1.22l-.634,1.868a4.053,4.053,0,0,1-1.379,1.22,3.446,3.446,0,0,1-1.668.455ZM70.693,50.4a5.728,5.728,0,0,1-3.033-.689,3.253,3.253,0,0,1-1.489-1.978,5.073,5.073,0,0,1,.227-2.916A7.913,7.913,0,0,1,68.156,41.9,8.589,8.589,0,0,1,71,39.893a8.789,8.789,0,0,1,3.522-.689,5.77,5.77,0,0,1,3.04.689,3.281,3.281,0,0,1,1.5,1.978,5.011,5.011,0,0,1-.227,2.916,7.8,7.8,0,0,1-1.771,2.943,8.485,8.485,0,0,1-2.847,1.978,8.8,8.8,0,0,1-3.522.689Zm1.027-3.012a3.2,3.2,0,0,0,2.006-.689,3.881,3.881,0,0,0,1.31-1.9,2.219,2.219,0,0,0,0-1.9,1.661,1.661,0,0,0-1.544-.689,3.191,3.191,0,0,0-2.006.689,3.881,3.881,0,0,0-1.31,1.9,2.22,2.22,0,0,0,0,1.9A1.668,1.668,0,0,0,71.72,47.385Z" transform="translate(0 -10.721)"/><path class="a" d="M23.975,59.91h6.6c1.723,0,2.923.455,3.584,1.379s.689,2.213.131,3.915a7.954,7.954,0,0,1-1.709,2.923,7.21,7.21,0,0,1-2.626,1.792l.779,5.363H26.9l-.689-4.825H24.106l-1.634,4.825H18.75Zm3.446,7.279a3.667,3.667,0,0,0,1.875-.448,2.757,2.757,0,0,0,1.137-1.551q.393-1.144-.062-1.572a2.3,2.3,0,0,0-1.592-.427h-2.2l-1.379,4Zm10.725,8.423a14.8,14.8,0,0,0,2.454-.207,12.912,12.912,0,0,0,2.13-.538L43.6,72.31a10.762,10.762,0,0,1-1.964.489,13.186,13.186,0,0,1-2.068.172,4.6,4.6,0,0,1-2.157-.393A1.2,1.2,0,0,1,36.8,71.3h8.03l.482-1.434a5.356,5.356,0,0,0,.289-2.8,2.95,2.95,0,0,0-1.289-1.958,5,5,0,0,0-2.854-.689,7.878,7.878,0,0,0-4.825,1.516,8.423,8.423,0,0,0-2.909,4.136q-.9,2.654.3,4.136t4.136,1.454Zm4.012-6.727H37.595a3.026,3.026,0,0,1,1.124-1.33,3.15,3.15,0,0,1,1.765-.5,1.875,1.875,0,0,1,1.454.482,1.434,1.434,0,0,1,.221,1.379Zm6.369-4.136h3.446l-.393,1.144a7.12,7.12,0,0,1,1.806-1.1,5.018,5.018,0,0,1,1.875-.386,3.288,3.288,0,0,1,1.7.352,1.682,1.682,0,0,1,.744,1.055A7.279,7.279,0,0,1,59.59,64.8a5.728,5.728,0,0,1,1.951-.372c1.337,0,2.157.358,2.481,1.068a4.315,4.315,0,0,1-.207,3.067l-2.288,6.748H58l2.109-6.2a1.847,1.847,0,0,0,.117-1.275c-.117-.269-.427-.4-.917-.4a2.7,2.7,0,0,0-1.771.689c-.076.248-.193.634-.372,1.144L55.1,75.288H51.587l2.157-6.355a1.758,1.758,0,0,0,.124-1.165q-.159-.352-.848-.352a3.329,3.329,0,0,0-2.275,1.254L48.5,75.288H44.943l3.619-10.56ZM68.7,75.612a8.8,8.8,0,0,0,3.522-.689,8.622,8.622,0,0,0,2.847-1.978,7.83,7.83,0,0,0,1.758-2.936,5.011,5.011,0,0,0,.221-2.916,3.212,3.212,0,0,0-1.5-1.978,5.769,5.769,0,0,0-3.04-.689,8.816,8.816,0,0,0-3.522.689,8.623,8.623,0,0,0-2.847,1.978,7.8,7.8,0,0,0-1.758,2.916,4.984,4.984,0,0,0-.221,2.909,3.24,3.24,0,0,0,1.5,1.978,5.769,5.769,0,0,0,3.04.689Zm1.02-3.012a1.654,1.654,0,0,1-1.537-.689,2.2,2.2,0,0,1,0-1.9,3.929,3.929,0,0,1,1.31-1.9,3.219,3.219,0,0,1,2.013-.689,1.675,1.675,0,0,1,1.544.689,2.219,2.219,0,0,1,0,1.9,3.908,3.908,0,0,1-1.31,1.9,3.219,3.219,0,0,1-2.013.689Zm10.732,3.012a2.546,2.546,0,0,1-2.461-1.089,3.736,3.736,0,0,1,.055-2.978l1.379-4.136H77.994l.91-2.681H80.33l1.075-3.164h3.7l-1.048,3.164h2.309l-.91,2.681H83.15L81.923,71a1.813,1.813,0,0,0-.117,1.234c.124.248.441.372.958.372a3.591,3.591,0,0,0,1.523-.393l-.979,2.923a6.314,6.314,0,0,1-1.3.379,8.616,8.616,0,0,1-1.565.124Zm9.436,0a8.8,8.8,0,0,0,3.522-.689,8.485,8.485,0,0,0,2.847-1.978,7.83,7.83,0,0,0,1.758-2.909,5.073,5.073,0,0,0,.227-2.916,3.253,3.253,0,0,0-1.51-1.978,5.728,5.728,0,0,0-3.033-.689,8.8,8.8,0,0,0-3.522.689,8.485,8.485,0,0,0-2.847,1.978,7.8,7.8,0,0,0-1.758,2.916,4.99,4.99,0,0,0-.227,2.909,3.267,3.267,0,0,0,1.5,1.978A5.769,5.769,0,0,0,89.884,75.612ZM90.911,72.6a1.668,1.668,0,0,1-1.544-.689,2.206,2.206,0,0,1,0-1.9,3.915,3.915,0,0,1,1.3-1.9,3.233,3.233,0,0,1,2.013-.689,1.668,1.668,0,0,1,1.544.689,2.22,2.22,0,0,1,0,1.9,3.867,3.867,0,0,1-1.31,1.9,3.2,3.2,0,0,1-2.006.689Z" transform="translate(-5.826 -18.985)"/><path class="b" d="M127.069,57a2.543,2.543,0,0,1,1.179.3,2.316,2.316,0,0,1,.9.882,2.392,2.392,0,0,1,.055,2.378,2.123,2.123,0,0,1-.834.9,2.4,2.4,0,0,1-1.179.317A2.488,2.488,0,0,1,126,61.467a2.254,2.254,0,0,1-.9-.882,2.406,2.406,0,0,1-.345-1.186,2.371,2.371,0,0,1,.3-1.192,2.158,2.158,0,0,1,.875-.882,2.468,2.468,0,0,1,1.165-.3Zm0,.393a1.971,1.971,0,0,0-.972.255,1.833,1.833,0,0,0-.724.731,1.958,1.958,0,0,0,.041,1.978,1.84,1.84,0,0,0,.751.779,1.978,1.978,0,0,0,.993.262,1.916,1.916,0,0,0,.979-.262,1.737,1.737,0,0,0,.724-.738,1.985,1.985,0,0,0,.241-.986,2.013,2.013,0,0,0-.289-.993,1.9,1.9,0,0,0-.758-.738,2.068,2.068,0,0,0-.979-.255Zm-.979,3.3h.414V59.605h.241a.51.51,0,0,1,.331.09,1.937,1.937,0,0,1,.448.593l.241.407h.5l-.317-.5a3.2,3.2,0,0,0-.393-.5.634.634,0,0,0-.221-.138.806.806,0,0,0,.531-.234.689.689,0,0,0,.186-.489.634.634,0,0,0-.124-.372.69.69,0,0,0-.331-.248,2.123,2.123,0,0,0-.655-.069h-.875l.048,2.557Zm.386-1.441h.517a.772.772,0,0,0,.489-.11.352.352,0,0,0,.124-.283.366.366,0,0,0-.069-.2.352.352,0,0,0-.179-.131,1.144,1.144,0,0,0-.414-.048h-.469Z" transform="translate(-38.765 -18.013)"/><path class="c" d="M17.691,10.182a6.418,6.418,0,0,1,1.972.31c1.64-1.1,3.37-2.151,5.176-3.123,22.932-12.373,49.8-8.8,60,8a28.209,28.209,0,0,1,3.233,20.871A28.385,28.385,0,0,0,84.5,17.571C74.529.78,48.3-2.8,25.928,9.575c-1.33.744-2.619,1.516-3.867,2.337a5.983,5.983,0,0,1,.9,1.048A57.837,57.837,0,0,1,28,9.989c21.382-11.256,46.43-8,55.949,7.244a25.127,25.127,0,0,1,3.012,18.983A25.3,25.3,0,0,0,83.635,19.3C74.322,4,49.867.745,29,11.994a57.973,57.973,0,0,0-5.039,3.067h-.048a6.789,6.789,0,0,1,.193,1.606,6.424,6.424,0,1,1-6.424-6.486ZM16.6,21.369V22.52h2.068V21.279a2.992,2.992,0,0,0,1.716-.868,2.357,2.357,0,0,0,.572-1.627,2.819,2.819,0,0,0-.221-1.2A2.206,2.206,0,0,0,20,16.744a6.948,6.948,0,0,0-1.379-.731c-.455-.172-.786-.317-.993-.414a1.682,1.682,0,0,1-.476-.331.579.579,0,0,1-.172-.427.6.6,0,0,1,.338-.558,1.93,1.93,0,0,1,.917-.193,4.722,4.722,0,0,1,2.233.586V12.7a5.686,5.686,0,0,0-1.806-.489V11.029H16.6v1.248a3.136,3.136,0,0,0-1.6.91,2.233,2.233,0,0,0-.586,1.558,2.33,2.33,0,0,0,.551,1.585,4.825,4.825,0,0,0,1.785,1.165c.462.193.8.345,1.006.448a1.379,1.379,0,0,1,.462.338.689.689,0,0,1,.152.455.607.607,0,0,1-.283.538,1.765,1.765,0,0,1-.9.179,6.072,6.072,0,0,1-1.379-.172,6.238,6.238,0,0,1-1.427-.531v2.02a4.136,4.136,0,0,0,.979.358,9.651,9.651,0,0,0,1.234.241Z" transform="translate(-3.499 -0.003)"/><path class="d" d="M75.25,92.055a6.371,6.371,0,0,1-1.965-.311q-2.466,1.655-5.175,3.123c-22.939,12.407-49.807,8.8-60.016-8A28.219,28.219,0,0,1,4.861,66,28.453,28.453,0,0,0,8.424,84.659c9.988,16.791,36.222,20.368,58.589,8q2.006-1.11,3.867-2.33a7.306,7.306,0,0,1-.9-1.048,57.711,57.711,0,0,1-5.025,2.971C43.585,103.5,18.515,100.243,9,84.976A25.144,25.144,0,0,1,5.984,66,25.352,25.352,0,0,0,9.307,82.97c9.319,15.268,33.775,18.521,54.626,7.265a55.926,55.926,0,0,0,5.039-3.06h.055a6.528,6.528,0,0,1-.186-1.606,6.424,6.424,0,1,1,6.424,6.486Zm-.731-1.882v1.151h2.068v-1.2a3.033,3.033,0,0,0,1.716-.862,2.364,2.364,0,0,0,.572-1.627,2.832,2.832,0,0,0-.227-1.206,2.206,2.206,0,0,0-.731-.841,6.638,6.638,0,0,0-1.379-.689c-.455-.179-.786-.317-.993-.42a1.551,1.551,0,0,1-.476-.331.579.579,0,0,1-.172-.427.607.607,0,0,1,.338-.558,1.9,1.9,0,0,1,.91-.186,4.825,4.825,0,0,1,2.24.579V81.523a5.7,5.7,0,0,0-1.778-.5V79.875H74.54v1.289a3.074,3.074,0,0,0-1.6.9,2.261,2.261,0,0,0-.593,1.565,2.33,2.33,0,0,0,.558,1.578,4.735,4.735,0,0,0,1.785,1.165c.462.193.8.345,1.006.448a1.634,1.634,0,0,1,.462.338.689.689,0,0,1,.152.455.607.607,0,0,1-.283.538,1.689,1.689,0,0,1-.9.186,6.052,6.052,0,0,1-1.379-.179,6.237,6.237,0,0,1-1.427-.531v2.026a4.012,4.012,0,0,0,.979.352,9.651,9.651,0,0,0,1.213.165Z" transform="translate(-1.29 -21.097)"/></g></svg>