<svg xmlns="http://www.w3.org/2000/svg" width="45" height="45" viewBox="0 0 45 45"><defs><style>.a,.b{fill:#0779e4;}.a{opacity:0.1;}</style></defs><rect class="a" width="45" height="45" rx="10"/><path class="b" d="M.507,14.9H10.88a.507.507,0,0,0,.507-.507V12.879a.507.507,0,0,0-.507-.507H.507A.507.507,0,0,0,0,12.879v1.516a.507.507,0,0,0,.507.507Zm0-10.122H10.88a.507.507,0,0,0,.507-.507V2.757a.507.507,0,0,0-.507-.507H.507A.507.507,0,0,0,0,2.757V4.273a.507.507,0,0,0,.507.507ZM17.08,7.311H.633A.633.633,0,0,0,0,7.943V9.209a.633.633,0,0,0,.633.633H17.08a.633.633,0,0,0,.633-.633V7.943A.633.633,0,0,0,17.08,7.311Zm0,10.122H.633A.633.633,0,0,0,0,18.065V19.33a.633.633,0,0,0,.633.633H17.08a.633.633,0,0,0,.633-.633V18.065A.633.633,0,0,0,17.08,17.432Z" transform="translate(13.644 11.394)"/></svg>