<svg xmlns="http://www.w3.org/2000/svg" width="70" height="70" viewBox="0 0 70 70"><defs><style>.a,.b{fill:#e43f5a;}.a{opacity:0.1;}</style></defs><g transform="translate(-80 -330)"><rect class="a" width="70" height="70" rx="15" transform="translate(80 330)"/><path class="b" d="M24.783,1.836H17.9L17.359.763A1.377,1.377,0,0,0,16.126,0H9.569A1.361,1.361,0,0,0,8.341.763L7.8,1.836H.918A.918.918,0,0,0,0,2.754V4.589a.918.918,0,0,0,.918.918H24.783a.918.918,0,0,0,.918-.918V2.754A.918.918,0,0,0,24.783,1.836ZM3.052,26.791A2.754,2.754,0,0,0,5.8,29.372H19.9a2.754,2.754,0,0,0,2.748-2.581L23.865,7.343H1.836Z" transform="translate(102.15 350.314)"/></g></svg>