<svg xmlns="http://www.w3.org/2000/svg" width="40" height="40" viewBox="0 0 40 40"><defs><style>.a,.b{fill:#0779e4;}.a{opacity:0.2;}</style></defs><g transform="translate(-30 -194)"><rect class="a" width="40" height="40" rx="10" transform="translate(30 194)"/><path class="b" d="M6.435,14.338A2.655,2.655,0,1,1,3.78,11.682,2.658,2.658,0,0,1,6.435,14.338Zm-5-13.5.451,9.027a.8.8,0,0,0,.8.757h2.2a.8.8,0,0,0,.8-.757L6.128.836A.8.8,0,0,0,5.332,0h-3.1A.8.8,0,0,0,1.432.836Z" transform="translate(46.1 205.383)"/></g></svg>