<svg xmlns="http://www.w3.org/2000/svg" width="55.85" height="48.983" viewBox="0 0 55.85 48.983"><defs><style>.a{fill:#fff;fill-rule:evenodd;}</style></defs><g transform="translate(0 -0.003)"><g transform="translate(0 0.003)"><path class="a" d="M3.154,34.348H5.309l.612,5.746,4.527-5.746h2.147L9.44,43.626H7.36l1.581-4.66-3.7,4.66H4.215l-.524-4.66-1.585,4.66H0Zm13.676.042H19.18l-1.96,2.359H15.14L16.8,34.39ZM14.1,43.826a9.02,9.02,0,0,0,1.481-.129,7.04,7.04,0,0,0,1.286-.325l.52-1.539a6.544,6.544,0,0,1-1.182.291,8.063,8.063,0,0,1-1.248.108,2.7,2.7,0,0,1-1.3-.241.728.728,0,0,1-.374-.77h4.847l.3-.861a3.328,3.328,0,0,0,.175-1.693,1.8,1.8,0,0,0-.778-1.182,3.037,3.037,0,0,0-1.727-.416,4.726,4.726,0,0,0-2.912.915,5.038,5.038,0,0,0-1.756,2.5,2.506,2.506,0,0,0,.179,2.5,3.038,3.038,0,0,0,2.5.878Zm2.417-4.065H13.759a1.831,1.831,0,0,1,.682-.8,1.922,1.922,0,0,1,1.065-.3,1.119,1.119,0,0,1,.878.291.857.857,0,0,1,.129.807Zm4.256,4.065a5.2,5.2,0,0,0,.944-.075,3.744,3.744,0,0,0,.782-.233l.591-1.718a2.118,2.118,0,0,1-.919.241q-.466,0-.574-.225a1.061,1.061,0,0,1,.067-.745l.741-2.184h1.394l.553-1.618h-1.4l.649-1.914H21.364l-.649,1.914h-.861L19.3,38.888h.861l-.832,2.5a2.284,2.284,0,0,0-.033,1.8,1.525,1.525,0,0,0,1.485.657Zm5.7,0a3.457,3.457,0,0,1-1.831-.416,1.939,1.939,0,0,1-.919-1.194,3.025,3.025,0,0,1,.133-1.76,4.776,4.776,0,0,1,1.073-1.777,5.226,5.226,0,0,1,1.706-1.194,5.3,5.3,0,0,1,2.126-.416,3.482,3.482,0,0,1,1.835.416,1.98,1.98,0,0,1,.907,1.194,3.025,3.025,0,0,1-.137,1.76,4.755,4.755,0,0,1-1.044,1.777,5.18,5.18,0,0,1-1.722,1.194,5.292,5.292,0,0,1-2.126.416Zm.62-1.818a1.943,1.943,0,0,0,1.215-.416,2.363,2.363,0,0,0,.786-1.148,1.34,1.34,0,0,0,0-1.148,1,1,0,0,0-.928-.416,1.939,1.939,0,0,0-1.215.416,2.372,2.372,0,0,0-.79,1.148,1.34,1.34,0,0,0,0,1.148A1.007,1.007,0,0,0,27.085,42.008ZM33.9,43.826a4.023,4.023,0,0,0,2.438-.832l-.216.637h2.151l3.328-9.811H39.384L38.04,37.777a1.685,1.685,0,0,0-.732-.553,3.066,3.066,0,0,0-1.111-.166,4.161,4.161,0,0,0-1.835.416,4.809,4.809,0,0,0-1.548,1.2,5.342,5.342,0,0,0-1.007,1.772,3.516,3.516,0,0,0-.187,1.772,1.814,1.814,0,0,0,.741,1.182,2.629,2.629,0,0,0,1.548.416ZM35.1,42.02a1.065,1.065,0,0,1-.961-.416,1.29,1.29,0,0,1-.021-1.152,2.355,2.355,0,0,1,.832-1.152,2.022,2.022,0,0,1,1.248-.416,1.248,1.248,0,0,1,.832.27.99.99,0,0,1,.333.736l-.383,1.128a2.446,2.446,0,0,1-.832.736,2.08,2.08,0,0,1-1.007.275Zm7.572,1.806a3.457,3.457,0,0,1-1.831-.416,1.964,1.964,0,0,1-.9-1.194,3.062,3.062,0,0,1,.137-1.76,4.776,4.776,0,0,1,1.061-1.76,5.184,5.184,0,0,1,1.714-1.211,5.3,5.3,0,0,1,2.126-.416,3.482,3.482,0,0,1,1.835.416,1.98,1.98,0,0,1,.907,1.194,3.025,3.025,0,0,1-.137,1.76,4.71,4.71,0,0,1-1.069,1.777A5.122,5.122,0,0,1,44.8,43.41a5.309,5.309,0,0,1-2.126.416Zm.62-1.818a1.93,1.93,0,0,0,1.211-.416,2.342,2.342,0,0,0,.79-1.148,1.34,1.34,0,0,0,0-1.148,1,1,0,0,0-.932-.416,1.926,1.926,0,0,0-1.211.416,2.342,2.342,0,0,0-.791,1.148,1.34,1.34,0,0,0,0,1.148A1.007,1.007,0,0,0,43.29,42.008Z" transform="translate(0 -19.877)"/><path class="a" d="M21.9,59.91h3.982a2.492,2.492,0,0,1,2.163.832,2.576,2.576,0,0,1,.079,2.363A4.8,4.8,0,0,1,27.1,64.869a4.352,4.352,0,0,1-1.585,1.082l.47,3.237H23.672l-.416-2.912H21.983L21,69.188H18.75Zm2.08,4.394a2.213,2.213,0,0,0,1.132-.27A1.664,1.664,0,0,0,25.8,63.1q.237-.691-.037-.949a1.385,1.385,0,0,0-.961-.258H23.476L22.644,64.3Zm6.474,5.084a8.933,8.933,0,0,0,1.481-.125,7.8,7.8,0,0,0,1.286-.325l.524-1.544a6.5,6.5,0,0,1-1.186.3,7.957,7.957,0,0,1-1.248.1,2.779,2.779,0,0,1-1.3-.237.724.724,0,0,1-.37-.77h4.847l.291-.865a3.233,3.233,0,0,0,.175-1.689,1.781,1.781,0,0,0-.778-1.182,3.016,3.016,0,0,0-1.722-.416,4.755,4.755,0,0,0-2.912.915,5.084,5.084,0,0,0-1.756,2.5,2.513,2.513,0,0,0,.179,2.5,3.007,3.007,0,0,0,2.5.878Zm2.421-4.061H30.125a1.827,1.827,0,0,1,.678-.8,1.9,1.9,0,0,1,1.065-.3,1.132,1.132,0,0,1,.878.291.865.865,0,0,1,.133.832Zm3.844-2.5H38.8l-.237.691a4.3,4.3,0,0,1,1.09-.662,3.029,3.029,0,0,1,1.132-.233,1.985,1.985,0,0,1,1.028.212,1.015,1.015,0,0,1,.449.637A4.394,4.394,0,0,1,43.4,62.86a3.457,3.457,0,0,1,1.177-.225c.807,0,1.3.216,1.5.645a2.6,2.6,0,0,1-.125,1.851L44.57,69.2H42.44l1.273-3.744a1.115,1.115,0,0,0,.071-.77c-.071-.162-.258-.241-.553-.241a1.627,1.627,0,0,0-1.069.416c-.046.15-.117.383-.225.691l-1.248,3.636H38.571l1.3-3.836a1.061,1.061,0,0,0,.075-.7q-.1-.212-.512-.212a2.01,2.01,0,0,0-1.373.757l-1.356,3.994H34.56l2.184-6.374ZM48.9,69.388a5.309,5.309,0,0,0,2.126-.416,5.2,5.2,0,0,0,1.718-1.194A4.726,4.726,0,0,0,53.8,66.005a3.025,3.025,0,0,0,.133-1.76,1.939,1.939,0,0,0-.907-1.194,3.482,3.482,0,0,0-1.835-.416,5.321,5.321,0,0,0-2.126.416,5.2,5.2,0,0,0-1.718,1.194,4.71,4.71,0,0,0-1.061,1.76,3.008,3.008,0,0,0-.133,1.756,1.955,1.955,0,0,0,.907,1.194,3.482,3.482,0,0,0,1.835.416Zm.616-1.818a1,1,0,0,1-.928-.416,1.327,1.327,0,0,1,0-1.144,2.372,2.372,0,0,1,.79-1.148,1.943,1.943,0,0,1,1.215-.416,1.011,1.011,0,0,1,.932.416,1.34,1.34,0,0,1,0,1.148,2.359,2.359,0,0,1-.791,1.144,1.943,1.943,0,0,1-1.215.416Zm6.478,1.818a1.537,1.537,0,0,1-1.485-.657,2.255,2.255,0,0,1,.033-1.8l.832-2.5H54.51l.549-1.618h.861l.649-1.91H58.8l-.632,1.91h1.394l-.549,1.618H57.622L56.881,66.6a1.094,1.094,0,0,0-.071.745c.075.15.266.225.578.225a2.168,2.168,0,0,0,.919-.237L57.717,69.1a3.811,3.811,0,0,1-.782.229,5.2,5.2,0,0,1-.944.075Zm5.7,0a5.309,5.309,0,0,0,2.126-.416,5.122,5.122,0,0,0,1.718-1.194,4.726,4.726,0,0,0,1.061-1.756,3.062,3.062,0,0,0,.137-1.76,1.964,1.964,0,0,0-.911-1.194,3.457,3.457,0,0,0-1.831-.416,5.309,5.309,0,0,0-2.126.416,5.122,5.122,0,0,0-1.718,1.194,4.71,4.71,0,0,0-1.061,1.76,3.012,3.012,0,0,0-.137,1.756,1.972,1.972,0,0,0,.907,1.194A3.482,3.482,0,0,0,61.687,69.388Zm.62-1.818a1.007,1.007,0,0,1-.932-.416,1.331,1.331,0,0,1,0-1.144,2.363,2.363,0,0,1,.786-1.148,1.951,1.951,0,0,1,1.215-.416,1.007,1.007,0,0,1,.932.416,1.34,1.34,0,0,1,0,1.148,2.334,2.334,0,0,1-.791,1.144A1.93,1.93,0,0,1,62.307,67.57Z" transform="translate(-10.949 -35.207)"/><path class="a" d="M126.153,57a1.535,1.535,0,0,1,.711.183,1.4,1.4,0,0,1,.545.533,1.444,1.444,0,0,1,.033,1.435,1.281,1.281,0,0,1-.5.545,1.448,1.448,0,0,1-.711.191,1.5,1.5,0,0,1-.72-.191,1.361,1.361,0,0,1-.541-.533,1.452,1.452,0,0,1-.208-.716,1.431,1.431,0,0,1,.179-.72,1.3,1.3,0,0,1,.528-.533,1.489,1.489,0,0,1,.7-.183Zm0,.237a1.19,1.19,0,0,0-.587.154,1.107,1.107,0,0,0-.437.441,1.182,1.182,0,0,0,.025,1.194,1.111,1.111,0,0,0,.453.47,1.194,1.194,0,0,0,.6.158,1.157,1.157,0,0,0,.591-.158,1.048,1.048,0,0,0,.437-.445,1.2,1.2,0,0,0,.146-.595,1.215,1.215,0,0,0-.175-.6,1.148,1.148,0,0,0-.458-.445,1.248,1.248,0,0,0-.591-.154Zm-.591,1.993h.25v-.657h.146a.308.308,0,0,1,.2.054,1.169,1.169,0,0,1,.27.358l.146.245h.3l-.191-.3a1.929,1.929,0,0,0-.237-.3.383.383,0,0,0-.133-.083.487.487,0,0,0,.32-.141.416.416,0,0,0,.112-.3.383.383,0,0,0-.075-.225.416.416,0,0,0-.2-.15,1.281,1.281,0,0,0-.4-.042h-.528l.029,1.544Zm.233-.87h.312a.466.466,0,0,0,.3-.067.212.212,0,0,0,.075-.171.221.221,0,0,0-.042-.121.212.212,0,0,0-.108-.079.691.691,0,0,0-.25-.029H125.8Z" transform="translate(-72.853 -33.467)"/><path class="a" d="M15.142,6.147a3.874,3.874,0,0,1,1.19.187c.99-.666,2.034-1.3,3.124-1.885C33.3-3.019,49.516-.86,55.67,9.276a17.027,17.027,0,0,1,1.951,12.6A17.133,17.133,0,0,0,55.47,10.607C49.45.472,33.619-1.687,20.114,5.781c-.8.449-1.581.915-2.334,1.41a3.611,3.611,0,0,1,.545.632A34.911,34.911,0,0,1,21.362,6.03C34.268-.764,49.387,1.2,55.133,10.4a15.167,15.167,0,0,1,1.818,11.458,15.273,15.273,0,0,0-2.005-10.21C49.325,2.415,34.563.451,21.969,7.241a34.993,34.993,0,0,0-3.041,1.851H18.9a4.1,4.1,0,0,1,.116.969,3.878,3.878,0,1,1-3.878-3.915ZM14.48,12.9v.695h1.248v-.749a1.806,1.806,0,0,0,1.036-.524,1.423,1.423,0,0,0,.345-.982,1.7,1.7,0,0,0-.133-.724,1.331,1.331,0,0,0-.441-.508,4.194,4.194,0,0,0-.832-.441c-.275-.1-.474-.191-.6-.25a1.015,1.015,0,0,1-.287-.2.349.349,0,0,1-.1-.258.362.362,0,0,1,.2-.337,1.165,1.165,0,0,1,.553-.116,2.85,2.85,0,0,1,1.348.354V7.665a3.432,3.432,0,0,0-1.09-.3V6.659H14.48v.753a1.893,1.893,0,0,0-.965.549,1.348,1.348,0,0,0-.354.94,1.406,1.406,0,0,0,.333.957,2.912,2.912,0,0,0,1.078.7c.279.116.483.208.607.27a.832.832,0,0,1,.279.2.416.416,0,0,1,.092.275.366.366,0,0,1-.171.325,1.065,1.065,0,0,1-.541.108,3.665,3.665,0,0,1-.832-.1,3.765,3.765,0,0,1-.861-.32v1.219a2.5,2.5,0,0,0,.591.216,5.825,5.825,0,0,0,.745.146Z" transform="translate(-6.576 -0.003)"/><path class="a" d="M47.067,81.727a3.846,3.846,0,0,1-1.186-.187q-1.489,1-3.124,1.885C28.911,90.913,12.693,88.733,6.531,78.6A17.033,17.033,0,0,1,4.58,66,17.175,17.175,0,0,0,6.731,77.263C12.759,87.4,28.594,89.557,42.1,82.089q1.211-.67,2.334-1.406a4.411,4.411,0,0,1-.545-.632,34.836,34.836,0,0,1-3.033,1.793c-12.9,6.79-28.029,4.826-33.771-4.389A15.177,15.177,0,0,1,5.258,66,15.3,15.3,0,0,0,7.263,76.243c5.625,9.216,20.387,11.179,32.972,4.385a33.757,33.757,0,0,0,3.041-1.847h.033a3.94,3.94,0,0,1-.112-.969,3.878,3.878,0,1,1,3.878,3.915Zm-.441-1.136v.695h1.248v-.724a1.831,1.831,0,0,0,1.036-.52,1.427,1.427,0,0,0,.345-.982,1.71,1.71,0,0,0-.137-.728,1.331,1.331,0,0,0-.441-.508,4.007,4.007,0,0,0-.832-.416c-.275-.108-.474-.191-.6-.254a.936.936,0,0,1-.287-.2.349.349,0,0,1-.1-.258.366.366,0,0,1,.2-.337,1.149,1.149,0,0,1,.549-.112,2.912,2.912,0,0,1,1.352.349V75.369a3.441,3.441,0,0,0-1.073-.3v-.695H46.639v.778a1.856,1.856,0,0,0-.965.545,1.365,1.365,0,0,0-.358.944,1.406,1.406,0,0,0,.337.953,2.858,2.858,0,0,0,1.078.7c.279.117.483.208.607.27a.986.986,0,0,1,.279.2.416.416,0,0,1,.092.275.366.366,0,0,1-.171.325,1.019,1.019,0,0,1-.541.112,3.653,3.653,0,0,1-.832-.108,3.765,3.765,0,0,1-.861-.32v1.223a2.421,2.421,0,0,0,.591.212,5.825,5.825,0,0,0,.732.1Z" transform="translate(-2.425 -38.896)"/></g></g></svg>