<svg xmlns="http://www.w3.org/2000/svg" width="45" height="45" viewBox="0 0 45 45"><defs><style>.a{fill:#12263f;opacity:0.7;}.b{fill:#fff;}</style></defs><g transform="translate(-60 -646)"><rect class="a" width="45" height="45" rx="10" transform="translate(60 646)"/><path class="b" d="M13.8,16.678l-3.1,3.1a.94.94,0,0,1-1.33,0l-3.1-3.1a.94.94,0,0,1,.665-1.6h2V11.125H4.982v2a.94.94,0,0,1-1.6.665l-3.1-3.1a.94.94,0,0,1,0-1.33l3.1-3.1a.94.94,0,0,1,1.6.665V8.931H8.931V4.982H6.924a.94.94,0,0,1-.665-1.6l3.1-3.1a.94.94,0,0,1,1.33,0l3.1,3.1a.94.94,0,0,1-.665,1.6h-2V8.931h3.949v-2a.94.94,0,0,1,1.6-.665l3.1,3.1a.94.94,0,0,1,0,1.33l-3.1,3.1a.94.94,0,0,1-1.6-.665V11.125H11.125v3.949h2.007A.94.94,0,0,1,13.8,16.678Z" transform="translate(72.472 658.472)"/></g></svg>